<svg width="72" height="73" viewBox="0 0 72 73" fill="none" xmlns="http://www.w3.org/2000/svg">
<g clip-path="url(#clip0_4_77)">
<path d="M36 72.39C55.8823 72.39 72 56.2723 72 36.39C72 16.5078 55.8823 0.390015 36 0.390015C16.1177 0.390015 0 16.5078 0 36.39C0 56.2723 16.1177 72.39 36 72.39Z" fill="url(#paint0_linear_4_77)"/>
<path d="M45.984 16.39C46.8674 16.3911 47.7143 16.7425 48.3389 17.3671C48.9636 17.9917 49.3149 18.8386 49.316 19.722V23.449L53.426 27.567C55.0548 29.1964 55.9727 31.4041 55.979 33.708V55.702C55.9791 55.7896 55.962 55.8764 55.9285 55.9574C55.895 56.0384 55.8459 56.112 55.7839 56.174C55.722 56.2359 55.6484 56.285 55.5674 56.3185C55.4864 56.352 55.3996 56.3691 55.312 56.369H43.32C43.2324 56.3691 43.1456 56.352 43.0646 56.3185C42.9836 56.285 42.91 56.2359 42.8481 56.174C42.7861 56.112 42.737 56.0384 42.7035 55.9574C42.67 55.8764 42.6529 55.7896 42.653 55.702V49.23L42.271 48.618C41.48 47.3539 40.9934 45.9234 40.8493 44.4392C40.7053 42.955 40.9078 41.4576 41.441 40.065L25.799 46.09C24.9746 46.4078 24.0577 46.385 23.25 46.0269C22.4423 45.6687 21.81 45.0044 21.492 44.18L18.988 37.678C18.1704 37.5947 17.4127 37.2116 16.8609 36.6026C16.3091 35.9936 16.0024 35.2018 16 34.38V19.722C16.0011 18.8386 16.3524 17.9917 16.9771 17.3671C17.6017 16.7425 18.4486 16.3911 19.332 16.39H45.984ZM54.646 49.706H43.986V55.036H54.646V49.706ZM46.65 51.038V52.371H45.318V51.038H46.65ZM50.325 26.348L52.58 32.203C52.8971 33.0272 52.8741 33.9436 52.5159 34.7508C52.1578 35.558 51.4939 36.19 50.67 36.508L49.987 36.774L52.452 39.24L51.51 40.182L40.892 29.567C40.4814 29.1553 39.9257 28.9209 39.3442 28.9142C38.7628 28.9075 38.2018 29.129 37.7819 29.5312C37.3619 29.9334 37.1163 30.4842 37.0978 31.0654C37.0793 31.6467 37.2894 32.212 37.683 32.64L43.143 38.597C43.339 38.81 43.375 39.127 43.231 39.377C42.4846 40.6818 42.1061 42.1645 42.1359 43.6674C42.1657 45.1702 42.6025 46.6368 43.4 47.911L43.689 48.373H54.646V33.708C54.6406 31.7577 53.8633 29.8889 52.484 28.51L50.325 26.348ZM40.527 37.708H29.565V37.712L21.612 40.777L22.736 43.7C22.8303 43.945 22.972 44.169 23.1529 44.3592C23.3339 44.5495 23.5505 44.7022 23.7904 44.8087C24.0304 44.9152 24.289 44.9734 24.5514 44.98C24.8139 44.9866 25.075 44.9414 25.32 44.847L41.393 38.652L40.527 37.708ZM25.869 37.712H20.429L21.131 39.536L25.869 37.712ZM45.984 17.722H19.332C18.8016 17.722 18.2929 17.9327 17.9178 18.3078C17.5427 18.6829 17.332 19.1916 17.332 19.722V34.38C17.332 34.9104 17.5427 35.4192 17.9178 35.7942C18.2929 36.1693 18.8016 36.38 19.332 36.38H39.306L36.704 33.537C36.0921 32.8497 35.7706 31.9518 35.8071 31.0323C35.8436 30.1128 36.2352 29.2432 36.8996 28.6065C37.5641 27.9698 38.4495 27.6156 39.3697 27.6183C40.29 27.621 41.1733 27.9804 41.834 28.621L47.938 34.726C47.963 34.612 47.978 34.496 47.983 34.38V23.972L47.977 23.957H47.983V19.722C47.983 19.1918 47.7724 18.6832 47.3976 18.3082C47.0227 17.9331 46.5143 17.7223 45.984 17.722ZM49.316 27.434V34.38C49.3148 34.839 49.2188 35.2929 49.034 35.713L50.19 35.267C50.4351 35.1728 50.6592 35.0312 50.8495 34.8503C51.0399 34.6694 51.1927 34.4528 51.2993 34.2128C51.4059 33.9729 51.4642 33.7143 51.4708 33.4518C51.4775 33.1893 51.4323 32.9281 51.338 32.683L49.316 27.433V27.434ZM21.996 31.715V33.048H19.332V31.715H21.996ZM33.99 31.715V33.048H31.325V31.715H33.99ZM21.997 27.717V29.05H19.332V27.717H21.997ZM25.995 27.717V29.05H23.329V27.717H25.995ZM29.993 27.717V29.05H27.327V27.717H29.993ZM33.99 27.717V29.05H31.325V27.717H33.99ZM23.596 19.055C24.553 19.055 25.328 19.831 25.328 20.788V23.986C25.328 24.943 24.553 25.718 23.596 25.718H20.398C20.1705 25.7181 19.9451 25.6734 19.7349 25.5865C19.5246 25.4995 19.3336 25.3719 19.1726 25.2111C19.0117 25.0502 18.884 24.8593 18.7969 24.6491C18.7098 24.4389 18.665 24.2135 18.665 23.986V20.788C18.665 19.831 19.441 19.055 20.398 19.055H23.596ZM23.596 20.388H20.398C20.2919 20.388 20.1902 20.4302 20.1152 20.5052C20.0401 20.5802 19.998 20.6819 19.998 20.788V21.72H21.33V23.053H19.998V23.986C19.998 24.206 20.177 24.386 20.398 24.386H23.596C23.7021 24.386 23.8038 24.3439 23.8788 24.2689C23.9539 24.1938 23.996 24.0921 23.996 23.986V23.053H22.663V21.72H23.996V20.788C23.996 20.6819 23.9539 20.5802 23.8788 20.5052C23.8038 20.4302 23.7021 20.388 23.596 20.388ZM45.318 19.722V21.72H43.985V19.722H45.318ZM42.652 19.722V21.72H41.32V19.722H42.652ZM39.987 19.722V21.72H38.655V19.722H39.987ZM37.322 19.722V21.72H35.989V19.722H37.322Z" fill="white"/>
</g>
<defs>
<linearGradient id="paint0_linear_4_77" x1="0" y1="0.390015" x2="7169.76" y2="7170.15" gradientUnits="userSpaceOnUse">
<stop stop-color="#33D35E"/>
<stop offset="1" stop-color="#2AB6D9"/>
</linearGradient>
<clipPath id="clip0_4_77">
<rect width="72" height="72" fill="white" transform="translate(0 0.390015)"/>
</clipPath>
</defs>
</svg>
