<svg width="73" height="73" viewBox="0 0 73 73" fill="none" xmlns="http://www.w3.org/2000/svg">
<g clip-path="url(#clip0_4_87)">
<path d="M36.5 72.39C56.3823 72.39 72.5 56.2723 72.5 36.39C72.5 16.5078 56.3823 0.390015 36.5 0.390015C16.6177 0.390015 0.5 16.5078 0.5 36.39C0.5 56.2723 16.6177 72.39 36.5 72.39Z" fill="url(#paint0_linear_4_87)"/>
<path d="M45.133 16.39C45.9527 16.3911 46.7386 16.7172 47.3182 17.2968C47.8979 17.8764 48.224 18.6623 48.225 19.482V27.052C53.455 27.338 57.618 31.417 57.618 36.39C57.618 41.363 53.456 45.442 48.225 45.728V53.298C48.2242 54.1178 47.8982 54.9038 47.3185 55.4835C46.7388 56.0632 45.9528 56.3892 45.133 56.39H27.599C26.7792 56.3892 25.9932 56.0632 25.4135 55.4835C24.8338 54.9038 24.5078 54.1178 24.507 53.298V46.058C24.507 45.9023 24.5689 45.753 24.6789 45.6429C24.789 45.5329 24.9383 45.471 25.094 45.471C25.2497 45.471 25.399 45.5329 25.5091 45.6429C25.6192 45.753 25.681 45.9023 25.681 46.058V49.58H47.051V45.728C46.0657 45.6757 45.0928 45.4845 44.161 45.16L39.778 47.551C39.312 47.805 38.765 47.331 38.945 46.835L40.253 43.239H33.548C33.3925 43.2384 33.2434 43.1766 33.133 43.067L28.436 38.371C28.3265 38.2606 28.2647 38.1116 28.264 37.956V25.118C28.264 24.794 28.527 24.531 28.851 24.531H43.881C44.205 24.531 44.468 24.794 44.468 25.118V27.52C45.287 27.262 46.153 27.101 47.051 27.052V22.574H25.68V43.278C25.68 43.3551 25.6648 43.4314 25.6353 43.5027C25.6058 43.5739 25.5626 43.6386 25.5081 43.6931C25.4536 43.7476 25.3889 43.7908 25.3176 43.8203C25.2464 43.8498 25.1701 43.865 25.093 43.865C25.0159 43.865 24.9396 43.8498 24.8684 43.8203C24.7972 43.7908 24.7324 43.7476 24.6779 43.6931C24.6234 43.6386 24.5802 43.5739 24.5507 43.5027C24.5212 43.4314 24.506 43.3551 24.506 43.278V19.482C24.5071 18.6621 24.8333 17.8761 25.4132 17.2965C25.993 16.7168 26.7791 16.3908 27.599 16.39H45.133ZM47.051 50.754H25.68V53.298C25.6805 53.8065 25.8828 54.2941 26.2424 54.6537C26.6019 55.0132 27.0895 55.2155 27.598 55.216H45.132C45.6405 55.2155 46.1281 55.0132 46.4877 54.6537C46.8472 54.2941 47.0495 53.8065 47.05 53.298L47.051 50.754ZM37.618 51.459C37.943 51.459 38.205 51.721 38.205 52.046V53.924C38.205 54.0011 38.1898 54.0774 38.1603 54.1487C38.1308 54.2199 38.0876 54.2846 38.0331 54.3391C37.9786 54.3936 37.9139 54.4368 37.8426 54.4663C37.7714 54.4958 37.6951 54.511 37.618 54.511H35.113C35.0359 54.511 34.9596 54.4958 34.8884 54.4663C34.8172 54.4368 34.7524 54.3936 34.6979 54.3391C34.6434 54.2846 34.6002 54.2199 34.5707 54.1487C34.5412 54.0774 34.526 54.0011 34.526 53.924V52.046C34.526 51.721 34.789 51.459 35.113 51.459H37.618ZM37.031 52.633H35.701V53.337H37.031V52.633ZM47.638 28.21C42.782 28.21 38.832 31.88 38.832 36.39C38.832 38.607 39.772 40.683 41.479 42.236C41.656 42.396 41.718 42.646 41.636 42.871L40.58 45.776L43.831 44.003C43.9054 43.9623 43.9877 43.9382 44.0723 43.9323C44.1569 43.9264 44.2417 43.939 44.321 43.969C45.3811 44.3688 46.5051 44.5725 47.638 44.57C52.494 44.57 56.444 40.9 56.444 36.39C56.444 31.88 52.494 28.21 47.638 28.21ZM47.638 29.54C47.962 29.54 48.225 29.804 48.225 30.128V31.419H48.265C48.9186 31.4201 49.5451 31.6803 50.0072 32.1425C50.4693 32.6048 50.7292 33.2314 50.73 33.885V34.511C50.73 34.6667 50.6682 34.816 50.5581 34.9261C50.448 35.0362 50.2987 35.098 50.143 35.098C49.9873 35.098 49.838 35.0362 49.7279 34.9261C49.6179 34.816 49.556 34.6667 49.556 34.511V33.885C49.556 33.173 48.976 32.594 48.264 32.594H47.324C46.44 32.594 45.72 33.314 45.72 34.198C45.72 35.083 46.44 35.803 47.325 35.803H47.951C48.6878 35.8038 49.3942 36.0969 49.9152 36.6178C50.4362 37.1388 50.7292 37.8452 50.73 38.582C50.73 40.022 49.63 41.209 48.225 41.347V42.652C48.225 42.8077 48.1632 42.957 48.0531 43.0671C47.943 43.1772 47.7937 43.239 47.638 43.239C47.4823 43.239 47.333 43.1772 47.2229 43.0671C47.1129 42.957 47.051 42.8077 47.051 42.652V41.361H47.011C46.3574 41.36 45.7309 41.0998 45.2688 40.6375C44.8067 40.1752 44.5468 39.5486 44.546 38.895C44.546 38.7393 44.6079 38.59 44.7179 38.4799C44.828 38.3699 44.9773 38.308 45.133 38.308C45.2887 38.308 45.438 38.3699 45.5481 38.4799C45.6582 38.59 45.72 38.7393 45.72 38.895C45.72 39.607 46.3 40.186 47.012 40.186H47.951C48.836 40.186 49.556 39.466 49.556 38.582C49.556 37.697 48.836 36.977 47.951 36.977H47.325C46.588 36.9765 45.8814 36.6836 45.3602 36.1625C44.839 35.6415 44.5458 34.935 44.545 34.198C44.545 32.758 45.647 31.571 47.051 31.433V30.128C47.051 29.804 47.314 29.54 47.638 29.54ZM43.293 25.705H29.438V37.368H33.548C33.872 37.368 34.135 37.631 34.135 37.956V42.066H39.702C38.375 40.444 37.658 38.473 37.658 36.39C37.658 35.278 37.866 34.21 38.248 33.22H31.982C31.8263 33.22 31.677 33.1582 31.5669 33.0481C31.4569 32.938 31.395 32.7887 31.395 32.633C31.395 32.4773 31.4569 32.328 31.5669 32.2179C31.677 32.1079 31.8263 32.046 31.982 32.046H38.802C39.201 31.335 39.695 30.677 40.268 30.089H38.245C38.0893 30.089 37.94 30.0272 37.8299 29.9171C37.7199 29.807 37.658 29.6577 37.658 29.502C37.658 29.3463 37.7199 29.197 37.8299 29.0869C37.94 28.9769 38.0893 28.915 38.245 28.915H41.375C41.451 28.915 41.523 28.929 41.589 28.955C42.119 28.575 42.689 28.245 43.293 27.97V25.705ZM32.961 38.543H30.269L32.961 41.235V38.543ZM36.366 35.177C36.5217 35.177 36.671 35.2389 36.7811 35.3489C36.8912 35.459 36.953 35.6083 36.953 35.764C36.953 35.9197 36.8912 36.069 36.7811 36.1791C36.671 36.2892 36.5217 36.351 36.366 36.351H31.982C31.8263 36.351 31.677 36.2892 31.5669 36.1791C31.4569 36.069 31.395 35.9197 31.395 35.764C31.395 35.6083 31.4569 35.459 31.5669 35.3489C31.677 35.2389 31.8263 35.177 31.982 35.177H36.366ZM35.74 28.914C35.8958 28.914 36.0453 28.9759 36.1554 29.0861C36.2656 29.1963 36.3275 29.3457 36.3275 29.5015C36.3275 29.6573 36.2656 29.8068 36.1554 29.9169C36.0453 30.0271 35.8958 30.089 35.74 30.089H31.982C31.8262 30.089 31.6768 30.0271 31.5666 29.9169C31.4564 29.8068 31.3945 29.6573 31.3945 29.5015C31.3945 29.3457 31.4564 29.1963 31.5666 29.0861C31.6768 28.9759 31.8262 28.914 31.982 28.914H35.74ZM45.133 17.564H27.599C27.0905 17.5645 26.6029 17.7668 26.2434 18.1264C25.8838 18.4859 25.6815 18.9735 25.681 19.482V21.4H47.051V19.482C47.0505 18.9735 46.8482 18.4859 46.4887 18.1264C46.1291 17.7668 45.6415 17.5645 45.133 17.564ZM37.618 18.894C37.7738 18.894 37.9233 18.9559 38.0334 19.0661C38.1436 19.1763 38.2055 19.3257 38.2055 19.4815C38.2055 19.6373 38.1436 19.7868 38.0334 19.8969C37.9233 20.0071 37.7738 20.069 37.618 20.069H35.113C34.9573 20.069 34.808 20.0072 34.6979 19.8971C34.5879 19.787 34.526 19.6377 34.526 19.482C34.526 19.3263 34.5879 19.177 34.6979 19.0669C34.808 18.9569 34.9573 18.895 35.113 18.895L37.618 18.894Z" fill="white"/>
</g>
<defs>
<linearGradient id="paint0_linear_4_87" x1="0.5" y1="0.390015" x2="7170.26" y2="7170.15" gradientUnits="userSpaceOnUse">
<stop stop-color="#33D35E"/>
<stop offset="1" stop-color="#2AB6D9"/>
</linearGradient>
<clipPath id="clip0_4_87">
<rect width="72" height="72" fill="white" transform="translate(0.5 0.390015)"/>
</clipPath>
</defs>
</svg>
