<svg width="72" height="73" viewBox="0 0 72 73" fill="none" xmlns="http://www.w3.org/2000/svg">
<g clip-path="url(#clip0_4_95)">
<path d="M36 72.39C55.8823 72.39 72 56.2723 72 36.39C72 16.5078 55.8823 0.390015 36 0.390015C16.1177 0.390015 0 16.5078 0 36.39C0 56.2723 16.1177 72.39 36 72.39Z" fill="url(#paint0_linear_4_95)"/>
<path d="M36 16.39C37.1972 16.3916 38.345 16.8679 39.1915 17.7145C40.0381 18.561 40.5144 19.7088 40.516 20.906C40.5155 21.6366 40.3378 22.3561 39.9979 23.0029C39.6581 23.6496 39.1664 24.2042 38.565 24.619C41.212 25.65 43.097 28.22 43.097 31.229V34.455H36.645V35.1C36.645 35.456 36.935 35.745 37.29 35.745H38.58C39.648 35.745 40.516 36.613 40.516 37.68V38.97C40.5155 39.4831 40.3115 39.9751 39.9487 40.338C39.586 40.701 39.0941 40.9052 38.581 40.906H37.428L38.118 41.596L37.154 43.186C37.201 43.286 37.235 43.386 37.278 43.486H43.565C43.013 43.0035 42.5706 42.4086 42.2672 41.7411C41.9639 41.0737 41.8066 40.3492 41.806 39.616C41.8076 38.2475 42.352 36.9356 43.3197 35.968C44.2875 35.0005 45.5995 34.4563 46.968 34.455C48.3361 34.4566 49.6478 35.0007 50.6153 35.968C51.5828 36.9354 52.1271 38.2469 52.129 39.615C52.129 40.3814 51.9581 41.1381 51.6287 41.83C51.2993 42.522 50.8198 43.1318 50.225 43.615C53.508 44.236 56 47.122 56 50.584V56.39H41.161V48.97C41.1605 48.7137 41.0584 48.4681 40.8772 48.2868C40.696 48.1056 40.4503 48.0035 40.194 48.003H39.226V49.153L37.424 49.596C37.344 49.811 37.254 50.026 37.155 50.238L38.118 51.828L34.665 55.282L33.075 54.319C32.861 54.419 32.647 54.509 32.433 54.587L31.99 56.39H27.107L26.665 54.588C26.4474 54.5075 26.2333 54.4181 26.023 54.32L24.433 55.282L20.979 51.829L21.942 50.239C21.8441 50.0287 21.7547 49.8145 21.674 49.597L19.871 49.154V44.27L21.674 43.827C21.753 43.613 21.843 43.399 21.942 43.185L20.979 41.595L21.669 40.905H20.516C20.0031 40.9042 19.5113 40.7001 19.1486 40.3374C18.7859 39.9747 18.5818 39.483 18.581 38.97V37.68C18.581 36.612 19.449 35.744 20.516 35.744H21.806C21.8908 35.7441 21.9748 35.7276 22.0531 35.6952C22.1315 35.6628 22.2027 35.6154 22.2627 35.5555C22.3227 35.4955 22.3703 35.4244 22.4028 35.3461C22.4353 35.2678 22.452 35.1838 22.452 35.099V34.454H16V31.228C16 28.219 17.885 25.649 20.532 24.618C19.9306 24.2032 19.4389 23.6486 19.0991 23.0019C18.7592 22.3551 18.5815 21.6356 18.581 20.905C18.5829 19.708 19.0593 18.5605 19.9058 17.7141C20.7524 16.8678 21.8999 16.3916 23.097 16.39C24.2942 16.3916 25.442 16.8679 26.2885 17.7145C27.1351 18.561 27.6114 19.7088 27.613 20.906C27.6124 21.6367 27.4345 22.3563 27.0945 23.003C26.7545 23.6498 26.2626 24.2043 25.661 24.619C27.3838 25.2916 28.7777 26.6076 29.548 28.289C30.3185 26.6077 31.7123 25.2918 33.435 24.619C32.8336 24.2042 32.3419 23.6496 32.0021 23.0029C31.6622 22.3561 31.4845 21.6366 31.484 20.906C31.4856 19.7088 31.9619 18.561 32.8085 17.7145C33.655 16.8679 34.8028 16.3916 36 16.39ZM48.903 44.777H31.806C31.5569 44.7883 31.3217 44.8953 31.1494 45.0756C30.9772 45.2559 30.881 45.4956 30.881 45.745C30.881 45.9944 30.9772 46.2342 31.1494 46.4145C31.3217 46.5948 31.5569 46.7017 31.806 46.713H40.194C40.7927 46.7135 41.3667 46.9516 41.7901 47.375C42.2134 47.7983 42.4515 48.3723 42.452 48.971V55.1H51.484V48.003H52.774V55.1H54.71V50.584C54.7084 49.0444 54.0961 47.5683 53.0074 46.4796C51.9187 45.3909 50.4426 44.7786 48.903 44.777ZM30.978 38.325H28.118L27.748 39.839L27.401 39.949C27.0174 40.0718 26.645 40.2274 26.288 40.414L25.968 40.581L24.629 39.771L22.608 41.793L23.418 43.131L23.25 43.451C23.0636 43.8084 22.908 44.1811 22.785 44.565L22.675 44.911L21.161 45.283V48.143L22.675 48.513L22.784 48.86C22.901 49.228 23.057 49.603 23.25 49.973L23.417 50.293L22.607 51.632L24.628 53.653L25.966 52.843L26.288 53.011C26.658 53.203 27.032 53.36 27.402 53.477L27.746 53.587L28.119 55.1H30.979L31.349 53.586L31.695 53.477C32.0787 53.3539 32.451 53.198 32.808 53.011L33.13 52.844L34.468 53.654L36.489 51.633L35.679 50.295L35.846 49.973C36.039 49.603 36.196 49.229 36.313 48.859L36.423 48.515L37.935 48.142V48.002H35.21C34.9167 49.2845 34.197 50.4297 33.1685 51.2501C32.14 52.0706 30.8637 52.518 29.548 52.519C28.0087 52.5172 26.533 51.9049 25.4446 50.8164C24.3561 49.728 23.7439 48.2523 23.742 46.713C23.7436 45.1736 24.3558 43.6976 25.4442 42.609C26.5327 41.5203 28.0085 40.9079 29.548 40.906C31.484 40.906 33.288 41.891 34.361 43.487H35.864L35.847 43.453L35.68 43.131L36.49 41.793L34.468 39.772L33.13 40.582L32.809 40.415C32.4519 40.2283 32.0796 40.0724 31.696 39.949L31.35 39.839L30.978 38.325ZM29.548 42.196C28.3506 42.1976 27.2027 42.674 26.3561 43.5208C25.5095 44.3676 25.0333 45.5156 25.032 46.713C25.0336 47.9102 25.5099 49.058 26.3565 49.9046C27.203 50.7511 28.3508 51.2274 29.548 51.229C30.5202 51.228 31.4663 50.9137 32.2457 50.3325C33.0252 49.7514 33.5965 48.9345 33.875 48.003H32.504C32.2496 48.5857 31.8287 49.0802 31.2942 49.4244C30.7596 49.7685 30.1352 49.947 29.4995 49.9374C28.8638 49.9277 28.2451 49.7304 27.7212 49.3702C27.1973 49.01 26.7916 48.503 26.555 47.9129C26.3184 47.3228 26.2615 46.6759 26.3914 46.0535C26.5214 45.4312 26.8324 44.8611 27.2854 44.415C27.7384 43.9689 28.3131 43.6666 28.9374 43.5462C29.5616 43.4257 30.2076 43.4924 30.794 43.738C31.1068 43.5757 31.4536 43.4897 31.806 43.487H32.704C31.86 42.6627 30.7278 42.1989 29.548 42.196ZM29.548 44.777C29.0349 44.7778 28.543 44.9821 28.1803 45.345C27.8175 45.7079 27.6135 46.1999 27.613 46.713C27.613 47.78 28.481 48.648 29.548 48.648C30.171 48.648 30.732 48.348 31.09 47.875C30.6423 47.7261 30.2527 47.4405 29.976 47.0583C29.6994 46.6762 29.5496 46.2168 29.548 45.745C29.548 45.408 29.628 45.092 29.76 44.805C29.689 44.796 29.62 44.777 29.548 44.777ZM46.968 35.745C45.9418 35.7461 44.958 36.1541 44.2323 36.8796C43.5066 37.6051 43.0983 38.5889 43.097 39.615C43.0978 40.6413 43.5057 41.6254 44.2313 42.3513C44.9568 43.0773 45.9407 43.4857 46.967 43.487C47.9935 43.4862 48.9777 43.0782 49.7037 42.3524C50.4296 41.6267 50.8379 40.6425 50.839 39.616C50.8379 38.5897 50.4298 37.6057 49.704 36.88C48.9783 36.1543 47.9943 35.7461 46.968 35.745ZM35.355 34.455H23.742V35.1C23.7412 35.6131 23.5369 36.105 23.174 36.4677C22.8111 36.8305 22.3191 37.0345 21.806 37.035H20.516C20.3449 37.035 20.1809 37.103 20.0599 37.2239C19.939 37.3449 19.871 37.509 19.871 37.68V38.97C19.871 39.327 20.16 39.616 20.516 39.616H22.959L24.432 38.144L26.022 39.106C26.235 39.006 26.45 38.917 26.664 38.838L27.107 37.035H31.99L32.433 38.838C32.647 38.918 32.861 39.007 33.075 39.106L34.665 38.144L36.137 39.616H38.581C38.7521 39.616 38.9161 39.5481 39.0371 39.4271C39.158 39.3061 39.226 39.1421 39.226 38.971V37.681C39.2261 37.5962 39.2095 37.5122 39.1772 37.4339C39.1448 37.3555 39.0973 37.2843 39.0374 37.2243C38.9775 37.1643 38.9064 37.1167 38.8281 37.0842C38.7497 37.0517 38.6658 37.035 38.581 37.035H37.291C36.7779 37.0345 36.2859 36.8305 35.923 36.4677C35.5601 36.105 35.3558 35.6131 35.355 35.1V34.455ZM23.097 25.422C21.5574 25.4236 20.0813 26.0359 18.9926 27.1246C17.9039 28.2133 17.2916 29.6894 17.29 31.229V33.164H19.226V28.003H20.516V33.164H25.677V28.003H26.967V33.164H28.903V31.23C28.9014 29.6906 28.2892 28.2146 27.2008 27.126C26.1123 26.0373 24.6365 25.4249 23.097 25.423V25.422ZM36 25.422C34.4605 25.4239 32.9847 26.0363 31.8962 27.125C30.8078 28.2136 30.1956 29.6896 30.194 31.229V33.164H32.129V28.003H33.419V33.164H38.581V28.003H39.871V33.164H41.806V31.23C41.8047 29.6904 41.1926 28.2142 40.1041 27.1253C39.0156 26.0364 37.5396 25.4239 36 25.422ZM51.484 24.132C52.6812 24.1336 53.829 24.6099 54.6755 25.4565C55.5221 26.303 55.9984 27.4508 56 28.648C55.9984 29.8452 55.5221 30.993 54.6755 31.8396C53.829 32.6861 52.6812 33.1624 51.484 33.164H44.387V28.648C44.3886 27.4508 44.8649 26.303 45.7115 25.4565C46.558 24.6099 47.7058 24.1336 48.903 24.132H51.484ZM51.484 25.422H48.904C48.0486 25.4228 47.2284 25.7629 46.6234 26.3677C46.0184 26.9725 45.6781 27.7926 45.677 28.648V31.874H51.484C52.3393 31.873 53.1592 31.5327 53.764 30.928C54.3687 30.3232 54.7089 29.5033 54.71 28.648C54.7089 27.7928 54.3687 26.9728 53.764 26.3681C53.1592 25.7633 52.3393 25.4231 51.484 25.422ZM48.258 29.293V30.583H46.968V29.293H48.258ZM50.838 29.293V30.583H49.548V29.293H50.838ZM53.419 29.293V30.583H52.129V29.293H53.419ZM53.419 26.713V28.003H46.968V26.713H53.419ZM23.097 17.68C22.2417 17.6811 21.4218 18.0213 20.817 18.6261C20.2123 19.2308 19.8721 20.0508 19.871 20.906C19.8721 21.7613 20.2123 22.5812 20.817 23.186C21.4218 23.7907 22.2417 24.131 23.097 24.132C23.9523 24.131 24.7722 23.7907 25.377 23.186C25.9817 22.5812 26.3219 21.7613 26.323 20.906C26.3219 20.0508 25.9817 19.2308 25.377 18.6261C24.7722 18.0213 23.9523 17.6811 23.097 17.68ZM36 17.68C35.1447 17.6811 34.3248 18.0213 33.72 18.6261C33.1153 19.2308 32.7751 20.0508 32.774 20.906C32.7751 21.7613 33.1153 22.5812 33.72 23.186C34.3248 23.7907 35.1447 24.131 36 24.132C36.8553 24.131 37.6752 23.7907 38.28 23.186C38.8847 22.5812 39.2249 21.7613 39.226 20.906C39.2249 20.0508 38.8847 19.2308 38.28 18.6261C37.6752 18.0213 36.8553 17.6811 36 17.68Z" fill="white"/>
</g>
<defs>
<linearGradient id="paint0_linear_4_95" x1="0" y1="0.390015" x2="7169.76" y2="7170.15" gradientUnits="userSpaceOnUse">
<stop stop-color="#33D35E"/>
<stop offset="1" stop-color="#2AB6D9"/>
</linearGradient>
<clipPath id="clip0_4_95">
<rect width="72" height="72" fill="white" transform="translate(0 0.390015)"/>
</clipPath>
</defs>
</svg>
