<svg width="73" height="73" viewBox="0 0 73 73" fill="none" xmlns="http://www.w3.org/2000/svg">
<g clip-path="url(#clip0_4_105)">
<path d="M36.5 72.39C56.3823 72.39 72.5 56.2723 72.5 36.39C72.5 16.5078 56.3823 0.390015 36.5 0.390015C16.6177 0.390015 0.5 16.5078 0.5 36.39C0.5 56.2723 16.6177 72.39 36.5 72.39Z" fill="url(#paint0_linear_4_105)"/>
<path d="M26.618 28.729C26.6367 28.654 26.67 28.5833 26.7161 28.5212C26.7622 28.459 26.8201 28.4067 26.8866 28.367C26.953 28.3274 27.0266 28.3013 27.1032 28.2903C27.1798 28.2793 27.2578 28.2835 27.3327 28.3028C27.4076 28.3221 27.478 28.356 27.5398 28.4026C27.6015 28.4492 27.6534 28.5076 27.6925 28.5744C27.7316 28.6411 27.757 28.715 27.7674 28.7916C27.7778 28.8683 27.7729 28.9463 27.753 29.021C27.713 29.177 27.693 29.338 27.693 29.501V43.28C27.693 44.338 28.553 45.199 29.611 45.199H43.39C43.553 45.199 43.714 45.179 43.87 45.139C43.9456 45.1162 44.0251 45.1089 44.1036 45.1175C44.1821 45.1261 44.2581 45.1506 44.327 45.1893C44.3958 45.228 44.4561 45.2803 44.5042 45.343C44.5524 45.4056 44.5873 45.4773 44.607 45.5538C44.6267 45.6304 44.6308 45.7101 44.6189 45.7882C44.607 45.8663 44.5794 45.9411 44.5379 46.0083C44.4963 46.0755 44.4416 46.1336 44.377 46.1791C44.3124 46.2246 44.2393 46.2565 44.162 46.273C43.9098 46.338 43.6504 46.3709 43.39 46.371H42.097V48.138C42.097 48.483 42.231 48.808 42.476 49.052L46.331 52.907C46.6756 52.7363 47.0651 52.6779 47.4446 52.74C47.8241 52.802 48.1747 52.9815 48.447 53.253C48.7914 53.598 48.9848 54.0656 48.9848 54.553C48.9848 55.0405 48.7914 55.5081 48.447 55.853C48.089 56.211 47.618 56.39 47.147 56.39C46.677 56.39 46.206 56.21 45.847 55.852C45.5756 55.5796 45.3964 55.229 45.3345 54.8495C45.2726 54.4699 45.3312 54.0806 45.502 53.736L41.647 49.881C41.4173 49.6527 41.2353 49.3811 41.1113 49.0819C40.9874 48.7827 40.9241 48.4619 40.925 48.138V46.37H39.592V48.915C39.592 49.0705 39.5303 49.2195 39.4204 49.3294C39.3105 49.4393 39.1614 49.501 39.006 49.501C38.8506 49.501 38.7015 49.4393 38.5916 49.3294C38.4817 49.2195 38.42 49.0705 38.42 48.915V46.37H37.087V55.804C37.087 55.9595 37.0253 56.1085 36.9154 56.2184C36.8055 56.3283 36.6564 56.39 36.501 56.39C36.3456 56.39 36.1965 56.3283 36.0866 56.2184C35.9767 56.1085 35.915 55.9595 35.915 55.804V46.37H34.582V48.915C34.582 49.0705 34.5203 49.2195 34.4104 49.3294C34.3005 49.4393 34.1514 49.501 33.996 49.501C33.8406 49.501 33.6915 49.4393 33.5816 49.3294C33.4717 49.2195 33.41 49.0705 33.41 48.915V46.37H32.077V51.557C32.4417 51.68 32.7588 51.9141 32.9835 52.2266C33.2083 52.5391 33.3295 52.9141 33.33 53.299C33.3295 53.7865 33.1355 54.2539 32.7907 54.5985C32.4459 54.9431 31.9785 55.1368 31.491 55.137C31.0037 55.1365 30.5365 54.9427 30.1919 54.5981C29.8473 54.2535 29.6535 53.7863 29.653 53.299C29.653 52.49 30.178 51.802 30.905 51.557V46.37H29.612C28.7926 46.369 28.0071 46.0429 27.4279 45.4635C26.8486 44.884 26.5228 44.0984 26.522 43.279V41.986H24.754C24.409 41.986 24.084 42.12 23.84 42.365L19.986 46.218C20.111 46.469 20.178 46.748 20.178 47.036C20.178 47.528 19.987 47.989 19.64 48.336C19.4697 48.5074 19.2671 48.6432 19.044 48.7357C18.8208 48.8282 18.5816 48.8756 18.34 48.875C17.848 48.875 17.387 48.684 17.04 48.336C16.8687 48.1657 16.7328 47.9632 16.6403 47.74C16.5478 47.5169 16.5004 47.2776 16.501 47.036C16.501 46.546 16.692 46.084 17.039 45.736C17.2094 45.5649 17.412 45.4292 17.6351 45.3369C17.8583 45.2445 18.0975 45.1973 18.339 45.198C18.629 45.198 18.906 45.265 19.158 45.39L23.011 41.536C23.2393 41.3064 23.511 41.1243 23.8102 41.0004C24.1093 40.8764 24.4302 40.8131 24.754 40.814H26.521V39.481H23.976C23.8206 39.481 23.6715 39.4193 23.5616 39.3094C23.4517 39.1995 23.39 39.0505 23.39 38.895C23.39 38.7396 23.4517 38.5906 23.5616 38.4807C23.6715 38.3708 23.8206 38.309 23.976 38.309H26.521V36.976H17.087C16.9316 36.976 16.7825 36.9143 16.6726 36.8044C16.5627 36.6945 16.501 36.5455 16.501 36.39C16.501 36.2346 16.5627 36.0856 16.6726 35.9757C16.7825 35.8658 16.9316 35.804 17.087 35.804H26.521V34.471H23.976C23.8206 34.471 23.6715 34.4093 23.5616 34.2994C23.4517 34.1895 23.39 34.0405 23.39 33.885C23.39 33.7296 23.4517 33.5806 23.5616 33.4707C23.6715 33.3608 23.8206 33.299 23.976 33.299H26.521V31.966H21.334C21.2109 32.3306 20.9767 32.6474 20.6642 32.872C20.3517 33.0966 19.9768 33.2176 19.592 33.218C19.1047 33.2175 18.6375 33.0237 18.2929 32.6791C17.9483 32.3345 17.7545 31.8673 17.754 31.38C17.7543 30.8926 17.948 30.4251 18.2926 30.0803C18.6372 29.7355 19.1045 29.5416 19.592 29.541C20.401 29.541 21.089 30.067 21.334 30.794H26.521V29.501C26.521 29.24 26.553 28.98 26.618 28.729ZM47.146 53.885C47.0139 53.8845 46.8847 53.9234 46.7748 53.9966C46.6648 54.0698 46.5792 54.1741 46.5288 54.2962C46.4784 54.4183 46.4654 54.5526 46.4917 54.682C46.5179 54.8115 46.5821 54.9302 46.676 55.023C46.7536 55.1008 46.8491 55.1582 46.9542 55.1902C47.0592 55.2221 47.1706 55.2276 47.2783 55.2062C47.386 55.1848 47.4868 55.1372 47.5716 55.0674C47.6565 54.9977 47.7228 54.9082 47.7648 54.8066C47.8067 54.7051 47.8229 54.5949 47.812 54.4856C47.801 54.3763 47.7633 54.2714 47.702 54.1802C47.6408 54.0891 47.558 54.0144 47.461 53.9629C47.364 53.9114 47.2558 53.8847 47.146 53.885ZM31.49 52.633C31.4024 52.6332 31.3157 52.6506 31.2348 52.6842C31.154 52.7178 31.0805 52.7671 31.0187 52.8291C30.9568 52.8911 30.9078 52.9647 30.8744 53.0457C30.841 53.1267 30.8239 53.2134 30.824 53.301C30.8241 53.3886 30.8415 53.4753 30.8752 53.5562C30.9088 53.6371 30.958 53.7105 31.0201 53.7724C31.0821 53.8342 31.1557 53.8833 31.2367 53.9166C31.3176 53.95 31.4044 53.9672 31.492 53.967C31.6689 53.9668 31.8384 53.8962 31.9633 53.771C32.0882 53.6457 32.1583 53.4759 32.158 53.299C32.1577 53.1221 32.0872 52.9526 31.9619 52.8277C31.8367 52.7028 31.6669 52.6328 31.49 52.633ZM18.338 46.37C18.2507 46.3699 18.1642 46.3871 18.0835 46.4206C18.0029 46.454 17.9296 46.5031 17.868 46.565C17.8058 46.6267 17.7565 46.7001 17.7228 46.7809C17.6892 46.8617 17.6719 46.9485 17.672 47.036C17.6713 47.1238 17.6881 47.2108 17.7214 47.2921C17.7547 47.3733 17.8038 47.4471 17.8659 47.5092C17.9279 47.5712 18.0017 47.6203 18.083 47.6536C18.1642 47.6869 18.2512 47.7037 18.339 47.703C18.4268 47.7037 18.5138 47.6869 18.595 47.6536C18.6763 47.6203 18.7501 47.5712 18.8121 47.5092C18.8742 47.4471 18.9233 47.3733 18.9566 47.2921C18.9899 47.2108 19.0067 47.1238 19.006 47.036C19.006 46.9486 18.9886 46.8621 18.955 46.7814C18.9214 46.7008 18.8721 46.6276 18.81 46.566C18.7482 46.5037 18.6747 46.4543 18.5937 46.4207C18.5126 46.387 18.4257 46.3698 18.338 46.37ZM36.5 16.39C36.824 16.39 37.086 16.652 37.086 16.976V26.41H38.419V23.865C38.419 23.7096 38.4807 23.5606 38.5906 23.4507C38.7005 23.3408 38.8496 23.279 39.005 23.279C39.1604 23.279 39.3095 23.3408 39.4194 23.4507C39.5293 23.5606 39.591 23.7096 39.591 23.865V26.41H40.924V21.223C40.5594 21.0999 40.2426 20.8657 40.0181 20.5532C39.7935 20.2408 39.6725 19.8658 39.672 19.481C39.6725 18.9937 39.8663 18.5265 40.2109 18.182C40.5555 17.8374 41.0227 17.6436 41.51 17.643C41.9975 17.6433 42.4649 17.837 42.8097 18.1816C43.1545 18.5262 43.3485 18.9936 43.349 19.481C43.349 20.29 42.823 20.978 42.096 21.223V26.41H43.389C44.2084 26.4111 44.9939 26.7371 45.5731 27.3166C46.1524 27.8961 46.4782 28.6817 46.479 29.501V30.794H48.247C48.592 30.794 48.917 30.659 49.161 30.415L53.015 26.562C52.8884 26.308 52.8227 26.0279 52.823 25.744C52.823 25.252 53.014 24.791 53.362 24.444C53.5323 24.2727 53.7349 24.1369 53.958 24.0443C54.1812 23.9518 54.4204 23.9045 54.662 23.905C55.152 23.905 55.614 24.096 55.962 24.444C56.309 24.791 56.5 25.253 56.5 25.744C56.5 26.234 56.309 26.696 55.962 27.044C55.7916 27.2152 55.589 27.3508 55.3659 27.4432C55.1427 27.5355 54.9035 27.5827 54.662 27.582C54.3778 27.5825 54.0974 27.5168 53.843 27.39L49.99 31.244C49.7617 31.4737 49.49 31.6558 49.1908 31.7797C48.8916 31.9036 48.5708 31.967 48.247 31.966H46.48V33.299H49.025C49.1804 33.299 49.3295 33.3608 49.4394 33.4707C49.5493 33.5806 49.611 33.7296 49.611 33.885C49.611 34.0405 49.5493 34.1895 49.4394 34.2994C49.3295 34.4093 49.1804 34.471 49.025 34.471H46.48V35.804H55.914C55.991 35.804 56.0672 35.8192 56.1383 35.8486C56.2093 35.8781 56.2739 35.9213 56.3284 35.9757C56.3828 36.0301 56.4259 36.0947 56.4554 36.1658C56.4848 36.2369 56.5 36.3131 56.5 36.39C56.5 36.467 56.4848 36.5432 56.4554 36.6143C56.4259 36.6854 56.3828 36.75 56.3284 36.8044C56.2739 36.8588 56.2093 36.902 56.1383 36.9314C56.0672 36.9609 55.991 36.976 55.914 36.976H46.48V38.309H49.025C49.1804 38.309 49.3295 38.3708 49.4394 38.4807C49.5493 38.5906 49.611 38.7396 49.611 38.895C49.611 39.0505 49.5493 39.1995 49.4394 39.3094C49.3295 39.4193 49.1804 39.481 49.025 39.481H46.48V40.814H51.667C51.7901 40.4495 52.0243 40.1327 52.3368 39.9081C52.6493 39.6835 53.0242 39.5625 53.409 39.562C53.8963 39.5626 54.3635 39.7564 54.7081 40.101C55.0527 40.4455 55.2465 40.9127 55.247 41.4C55.2465 41.8873 55.0527 42.3545 54.7081 42.6991C54.3635 43.0437 53.8963 43.2375 53.409 43.238C53.0242 43.2376 52.6493 43.1165 52.3368 42.892C52.0243 42.6674 51.7901 42.3506 51.667 41.986H46.48V43.279C46.4801 43.5391 46.4475 43.7981 46.383 44.05C46.3653 44.1261 46.3326 44.1978 46.2868 44.261C46.241 44.3242 46.183 44.3776 46.1163 44.4181C46.0496 44.4586 45.9755 44.4854 45.8983 44.4968C45.8211 44.5083 45.7423 44.5042 45.6667 44.4848C45.5911 44.4654 45.5202 44.4311 45.458 44.3839C45.3958 44.3367 45.3437 44.2776 45.3047 44.21C45.2657 44.1424 45.2406 44.0677 45.2308 43.9902C45.2211 43.9128 45.2269 43.8342 45.248 43.759C45.288 43.603 45.308 43.442 45.308 43.279V29.5C45.308 28.442 44.447 27.581 43.388 27.581H29.612C29.449 27.581 29.288 27.601 29.132 27.641C29.0564 27.6639 28.9769 27.6712 28.8984 27.6626C28.8199 27.6539 28.7439 27.6295 28.675 27.5908C28.6062 27.552 28.5459 27.4998 28.4978 27.4371C28.4496 27.3745 28.4147 27.3027 28.395 27.2262C28.3753 27.1497 28.3712 27.07 28.3831 26.9919C28.395 26.9138 28.4226 26.8389 28.4641 26.7717C28.5057 26.7046 28.5604 26.6465 28.625 26.601C28.6896 26.5555 28.7627 26.5235 28.84 26.507C29.091 26.442 29.35 26.409 29.612 26.409H30.905V24.642C30.905 24.297 30.771 23.972 30.526 23.728L26.671 19.873C26.3264 20.0437 25.9371 20.1022 25.5576 20.0403C25.1781 19.9785 24.8275 19.7993 24.555 19.528C24.2106 19.1831 24.0172 18.7155 24.0172 18.228C24.0172 17.7406 24.2106 17.273 24.555 16.928C24.9 16.5836 25.3675 16.3902 25.855 16.3902C26.3425 16.3902 26.81 16.5836 27.155 16.928C27.4264 17.2005 27.6056 17.5511 27.6675 17.9306C27.7294 18.3101 27.6708 18.6995 27.5 19.044L31.355 22.899C31.821 23.365 32.077 23.984 32.077 24.642V26.409H33.41V23.864C33.41 23.7086 33.4717 23.5596 33.5816 23.4497C33.6915 23.3398 33.8406 23.278 33.996 23.278C34.1514 23.278 34.3005 23.3398 34.4104 23.4497C34.5203 23.5596 34.582 23.7086 34.582 23.864V26.409H35.915V16.975C35.915 16.651 36.177 16.389 36.501 16.389L36.5 16.39ZM38.261 29.541C39.556 29.541 40.609 30.507 40.609 31.693C40.6085 31.8521 40.589 32.0106 40.551 32.165C41.806 32.51 42.722 33.571 42.722 34.825C42.722 35.527 42.422 36.197 41.907 36.703C42.423 37.21 42.722 37.88 42.722 38.582C42.722 39.537 42.178 40.422 41.308 40.926C41.221 42.214 40.046 43.239 38.614 43.239C38.2153 43.2429 37.8205 43.1615 37.4559 43.0002C37.0912 42.839 36.7653 42.6016 36.5 42.304C36.2347 42.6016 35.9088 42.839 35.5441 43.0002C35.1795 43.1615 34.7847 43.2429 34.386 43.239C32.898 43.239 31.686 42.133 31.686 40.774C30.81 40.195 30.278 39.265 30.278 38.269C30.278 37.614 30.504 36.999 30.895 36.492C30.4976 36.0271 30.2789 35.4357 30.278 34.824C30.278 33.571 31.194 32.51 32.449 32.164C32.4111 32.0102 32.3917 31.8525 32.391 31.694C32.391 30.507 33.444 29.541 34.739 29.541C35.439 29.541 36.069 29.825 36.5 30.273C36.7292 30.0389 37.0033 29.8534 37.3059 29.7276C37.6085 29.6019 37.9333 29.5384 38.261 29.541ZM38.261 30.713C37.613 30.713 37.086 31.153 37.086 31.693C37.086 31.8485 37.0243 31.9975 36.9144 32.1074C36.8045 32.2173 36.6554 32.279 36.5 32.279C36.3446 32.279 36.1955 32.2173 36.0856 32.1074C35.9757 31.9975 35.914 31.8485 35.914 31.693C35.914 31.153 35.387 30.713 34.739 30.713C34.09 30.713 33.563 31.153 33.563 31.693C33.5655 31.9 33.6418 32.0992 33.778 32.255L33.807 32.293L33.815 32.303L33.828 32.325C33.883 32.4137 33.9134 32.5155 33.9159 32.6198C33.9184 32.7242 33.8931 32.8273 33.8424 32.9185C33.7917 33.0098 33.7176 33.0858 33.6277 33.1388C33.5378 33.1918 33.4354 33.2199 33.331 33.22L33.315 33.219C32.285 33.225 31.45 33.943 31.449 34.824C31.449 35.143 31.561 35.449 31.769 35.71C32.101 35.5064 32.4642 35.3584 32.844 35.272C32.9939 35.2414 33.1498 35.2706 33.2785 35.3534C33.4072 35.4361 33.4984 35.566 33.5326 35.7151C33.5668 35.8642 33.5413 36.0208 33.4616 36.1514C33.3819 36.282 33.2543 36.3763 33.106 36.414C32.131 36.638 31.449 37.401 31.449 38.269C31.449 38.75 31.665 39.211 32.035 39.561C32.135 39.398 32.257 39.246 32.397 39.106C32.4511 39.0497 32.5159 39.0047 32.5876 38.9738C32.6593 38.9429 32.7365 38.9266 32.8146 38.9259C32.8927 38.9253 32.9702 38.9402 33.0424 38.9699C33.1147 38.9996 33.1802 39.0434 33.2353 39.0988C33.2904 39.1542 33.3338 39.22 33.363 39.2924C33.3923 39.3649 33.4068 39.4424 33.4056 39.5205C33.4045 39.5986 33.3877 39.6757 33.3564 39.7472C33.325 39.8187 33.2797 39.8833 33.223 39.937C32.988 40.171 32.858 40.468 32.858 40.774C32.858 41.487 33.544 42.067 34.386 42.067C35.229 42.067 35.914 41.487 35.914 40.774V39.52C35.914 38.983 35.513 38.495 34.915 38.308C34.7694 38.2594 34.6486 38.1555 34.5788 38.0187C34.509 37.8819 34.4956 37.7232 34.5416 37.5767C34.5876 37.4302 34.6893 37.3076 34.8248 37.2353C34.9602 37.163 35.1187 37.1467 35.266 37.19C35.5 37.263 35.716 37.365 35.914 37.49V34.236C35.914 34.0806 35.9757 33.9316 36.0856 33.8217C36.1955 33.7118 36.3446 33.65 36.5 33.65C36.6554 33.65 36.8045 33.7118 36.9144 33.8217C37.0243 33.9316 37.086 34.0806 37.086 34.236V34.985C37.52 34.711 38.046 34.551 38.613 34.551C38.7684 34.551 38.9175 34.6128 39.0274 34.7227C39.1373 34.8326 39.199 34.9816 39.199 35.137C39.199 35.2925 39.1373 35.4415 39.0274 35.5514C38.9175 35.6613 38.7684 35.723 38.613 35.723C37.771 35.723 37.086 36.303 37.086 37.015V40.773C37.086 41.486 37.771 42.066 38.613 42.066C39.456 42.066 40.141 41.486 40.141 40.773C40.141 40.235 39.74 39.748 39.142 39.56C38.9937 39.5134 38.8701 39.4097 38.7983 39.2719C38.7264 39.134 38.7123 38.9733 38.759 38.825C38.8057 38.6768 38.9093 38.5531 39.0472 38.4813C39.185 38.4095 39.3457 38.3954 39.494 38.442C40.1491 38.6393 40.7015 39.0841 41.034 39.682C41.358 39.388 41.55 38.994 41.55 38.581C41.55 38.027 41.213 37.518 40.649 37.221C40.5546 37.1713 40.4755 37.0967 40.4203 37.0054C40.3652 36.914 40.336 36.8093 40.336 36.7025C40.336 36.5958 40.3652 36.4911 40.4203 36.3997C40.4755 36.3083 40.5546 36.2338 40.649 36.184C41.213 35.886 41.55 35.377 41.55 34.824C41.55 33.942 40.715 33.224 39.685 33.218H39.661C39.3798 33.2178 39.1014 33.2736 38.842 33.382C38.7709 33.4129 38.6944 33.4293 38.617 33.4304C38.5395 33.4315 38.4625 33.4172 38.3906 33.3884C38.3187 33.3596 38.2532 33.3168 38.198 33.2624C38.1427 33.2081 38.0987 33.1434 38.0687 33.072C38.0386 33.0006 38.023 32.9239 38.0227 32.8464C38.0224 32.769 38.0375 32.6922 38.0672 32.6206C38.0968 32.549 38.1403 32.484 38.1952 32.4293C38.2501 32.3746 38.3153 32.3314 38.387 32.302C38.693 32.172 39.015 32.092 39.349 32.061C39.4066 31.9466 39.4368 31.8202 39.437 31.692C39.437 31.152 38.909 30.713 38.261 30.713ZM53.409 40.733C53.3213 40.7331 53.2346 40.7504 53.1536 40.784C53.0726 40.8176 52.9991 40.8669 52.9372 40.9289C52.8752 40.9909 52.8261 41.0645 52.7926 41.1456C52.7591 41.2266 52.7419 41.3134 52.742 41.401C52.7421 41.4887 52.7594 41.5755 52.793 41.6564C52.8266 41.7374 52.8758 41.8109 52.9379 41.8729C52.9999 41.9348 53.0735 41.9839 53.1545 42.0174C53.2355 42.0509 53.3223 42.0681 53.41 42.068C53.5869 42.068 53.7566 41.9978 53.8816 41.8727C54.0067 41.7476 54.077 41.5779 54.077 41.401C54.077 41.2241 54.0067 41.0545 53.8816 40.9294C53.7566 40.8043 53.5869 40.734 53.41 40.734L53.409 40.733ZM19.591 30.713C19.5033 30.7131 19.4166 30.7304 19.3356 30.764C19.2546 30.7976 19.1811 30.8469 19.1192 30.9089C19.0572 30.9709 19.0081 31.0445 18.9746 31.1256C18.9411 31.2066 18.9239 31.2934 18.924 31.381C18.9241 31.4687 18.9414 31.5555 18.975 31.6364C19.0086 31.7174 19.0578 31.7909 19.1199 31.8529C19.1819 31.9148 19.2555 31.9639 19.3365 31.9974C19.4175 32.0309 19.5043 32.0481 19.592 32.048C19.769 32.0479 19.9388 31.9775 20.0638 31.8522C20.1889 31.7269 20.2591 31.5571 20.259 31.38C20.2589 31.203 20.1884 31.0333 20.0631 30.9082C19.9379 30.7831 19.768 30.7129 19.591 30.713ZM54.661 25.077C54.5737 25.0769 54.4872 25.0941 54.4065 25.1276C54.3258 25.161 54.2526 25.2101 54.191 25.272C54.1287 25.3338 54.0793 25.4073 54.0456 25.4884C54.012 25.5694 53.9948 25.6563 53.995 25.744C53.9943 25.8318 54.0111 25.9188 54.0444 26.0001C54.0777 26.0813 54.1268 26.1551 54.1889 26.2172C54.2509 26.2792 54.3247 26.3283 54.406 26.3616C54.4872 26.3949 54.5742 26.4117 54.662 26.411C54.84 26.411 55.007 26.341 55.132 26.215C55.1942 26.1534 55.2435 26.08 55.2772 25.9992C55.3108 25.9183 55.3281 25.8316 55.328 25.744C55.3284 25.6564 55.3113 25.5695 55.2778 25.4885C55.2444 25.4075 55.1951 25.3339 55.133 25.272C55.0713 25.21 54.9979 25.1609 54.917 25.1274C54.8362 25.0939 54.7485 25.0768 54.661 25.077ZM41.511 18.814C41.334 18.814 41.1642 18.8844 41.039 19.0095C40.9138 19.1347 40.8435 19.3045 40.8435 19.4815C40.8435 19.6586 40.9138 19.8284 41.039 19.9535C41.1642 20.0787 41.334 20.149 41.511 20.149C41.688 20.149 41.8578 20.0787 41.983 19.9535C42.1082 19.8284 42.1785 19.6586 42.1785 19.4815C42.1785 19.3045 42.1082 19.1347 41.983 19.0095C41.8578 18.8844 41.688 18.814 41.511 18.814ZM25.854 17.562C25.7643 17.5587 25.6748 17.5735 25.591 17.6056C25.5072 17.6376 25.4306 17.6863 25.366 17.7486C25.3015 17.8109 25.2501 17.8857 25.2151 17.9683C25.18 18.0509 25.1621 18.1398 25.1622 18.2296C25.1623 18.3193 25.1806 18.4082 25.2159 18.4907C25.2511 18.5732 25.3027 18.6478 25.3675 18.7099C25.4323 18.7721 25.5089 18.8205 25.5929 18.8523C25.6768 18.8841 25.7663 18.8986 25.856 18.895C26.0283 18.8881 26.1912 18.8147 26.3106 18.6903C26.4299 18.5658 26.4965 18.4 26.4962 18.2276C26.4959 18.0551 26.4289 17.8895 26.3092 17.7654C26.1894 17.6413 26.0263 17.5685 25.854 17.562Z" fill="white"/>
</g>
<defs>
<linearGradient id="paint0_linear_4_105" x1="0.5" y1="0.390015" x2="7170.26" y2="7170.15" gradientUnits="userSpaceOnUse">
<stop stop-color="#33D35E"/>
<stop offset="1" stop-color="#2AB6D9"/>
</linearGradient>
<clipPath id="clip0_4_105">
<rect width="72" height="72" fill="white" transform="translate(0.5 0.390015)"/>
</clipPath>
</defs>
</svg>
